PathFileType	4	(X/Y/Z)	E:\Qualisys_Data\Carbon_Farble_Plate\Data\Amateur_Runner\S14\T3\S14T3V21_c3d.trc
DataRate	CameraRate	NumFrames	NumMarkers	Units	OrigDataRate	OrigDataStartFrame	OrigNumFrames
200.000000	200.000000	4	39	mm	200.000000	40	326
Frame#	Time	LSHO			RSHO			LICST			RICST			LASIS			LHEEL			RASIS			LTROC			RTROC			SACR			LTH1			LSK4			LTH2			LTH3			RHM5			LSK2			LTH4			RTH1			LTOE			RTH2			RTH3			RTH4			LLEP			RLEP			LSK1			LSK3			RSK1			LHM5			RSK2			LFT1			RSK3			RSK4			LLME			RLME			RTOE			RHEEL			RFT1			RFT2			LFT2			
		X1	Y1	Z1	X2	Y2	Z2	X3	Y3	Z3	X4	Y4	Z4	X5	Y5	Z5	X6	Y6	Z6	X7	Y7	Z7	X8	Y8	Z8	X9	Y9	Z9	X10	Y10	Z10	X11	Y11	Z11	X12	Y12	Z12	X13	Y13	Z13	X14	Y14	Z14	X15	Y15	Z15	X16	Y16	Z16	X17	Y17	Z17	X18	Y18	Z18	X19	Y19	Z19	X20	Y20	Z20	X21	Y21	Z21	X22	Y22	Z22	X23	Y23	Z23	X24	Y24	Z24	X25	Y25	Z25	X26	Y26	Z26	X27	Y27	Z27	X28	Y28	Z28	X29	Y29	Z29	X30	Y30	Z30	X31	Y31	Z31	X32	Y32	Z32	X33	Y33	Z33	X34	Y34	Z34	X35	Y35	Z35	X36	Y36	Z36	X37	Y37	Z37	X38	Y38	Z38	X39	Y39	Z39	

41	0.2	-2782.326904296875	1383.507690429688	-482.0181274414062	-2785.874267578125	1362.429931640625	-171.3694152832031	-2877.7841796875	937.1611938476562	-481.6607971191406	-2866.4453125	949.0726928710938	-198.5429840087891	-2835.41650390625	887.4452514648438	-455.168701171875	-3201.69580078125	515.029296875	-384.2503967285156	-2836.8740234375	914.1221313476562	-218.6935424804688	-2969.911865234375	814.0746459960938	-491.64599609375	-2975.721435546875	840.09619140625	-166.3835906982422	-3010.23828125	949.8538208007812	-349.943359375	-2827.826904296875	614.7738037109375	-515.1226806640625	-3007.959228515625	492.5048522949219	-469.1780395507812	-2897.446044921875	589.8579711914062	-488.0863952636719	-2786.686279296875	521.9397583007812	-500.5100402832031	-2910.007568359375	84.58992004394531	-211.7504119873047	-2913.0400390625	494.5280151367188	-495.9557189941406	-2861.28564453125	501.5762329101562	-478.7203674316406	-2801.2587890625	633.164306640625	-169.4528961181641	-3212.171630859375	251.1750640869141	-402.9770812988281	-2877.928466796875	620.9776611328125	-167.2177429199219	-2781.554443359375	540.1839599609375	-205.2217712402344	-2862.701904296875	523.030029296875	-193.0233306884766	-2832.400634765625	466.0052795410156	-499.0597534179688	-2824.599609375	460.6007995605469	-203.7759399414062	-2906.68701171875	413.7249755859375	-485.0613403320312	-3006.140380859375	412.1765441894531	-462.3578491210938	-2844.576171875	337.9266357421875	-210.6100769042969	-3225.350830078125	320.4308471679688	-462.5864868164062	-2921.618408203125	374.4533386230469	-200.8574371337891	-3230.972412109375	504.342529296875	-359.9844055175781	-2896.18994140625	251.9251861572266	-233.6400756835938	-2964.017333984375	290.6362915039062	-219.24853515625	-3172.52587890625	455.5824279785156	-440.7820739746094	-3027.75048828125	136.0155944824219	-252.1948547363281	-2836.36767578125	85.97259521484375	-278.4076538085938	-3089.698486328125	112.3138809204102	-308.9383850097656	-3080.607666015625	79.43025970458984	-332.5985412597656	-3097.185546875	93.54052734375	-284.0333557128906	-3231.1337890625	511.8942565917969	-411.4233703613281
42	0.205	-2763.6142578125	1384.930541992188	-482.4393615722656	-2764.211669921875	1364.64453125	-171.9596710205078	-2858.07275390625	938.8075561523438	-481.1878967285156	-2846.81591796875	950.2614135742188	-198.4013671875	-2816.044921875	888.4187622070312	-455.0556030273438	-3172.45751953125	507.3328247070312	-385.0384826660156	-2814.4677734375	916.0856323242188	-220.4244689941406	-2949.80322265625	815.4395141601562	-491.7496948242188	-2957.866455078125	840.8965454101562	-167.1764373779297	-2990.259033203125	951.5335693359376	-349.7327270507812	-2801.449951171875	619.1380615234375	-513.7982177734375	-2976.731201171875	491.7420043945312	-468.7961730957031	-2870.265380859375	592.122314453125	-486.7719116210938	-2757.172607421875	527.5447387695312	-499.5822143554688	-2909.4140625	84.4238052368164	-211.8107604980469	-2882.436767578125	496.9183044433594	-496.8432922363281	-2830.2275390625	504.6412658691406	-477.0571594238281	-2787.862060546875	630.9202270507812	-170.6859588623047	-3171.42333984375	243.6746673583984	-402.7064208984375	-2865.572021484375	621.408447265625	-166.9840087890625	-2771.5078125	537.519287109375	-205.3186645507812	-2852.037109375	523.5198974609375	-193.1324768066406	-2801.37646484375	470.7262878417969	-498.3621520996094	-2816.933349609375	460.3201293945312	-203.3522338867188	-2872.91650390625	416.0108642578125	-484.1326293945312	-2972.54736328125	411.5823364257812	-461.7175903320312	-2838.9091796875	336.750244140625	-210.6289367675781	-3188.4287109375	310.6436767578125	-463.347412109375	-2915.77392578125	374.7658081054688	-200.6207885742188	-3202.49267578125	496.4845275878906	-361.2624816894531	-2893.59423828125	251.5665893554688	-233.0344696044922	-2959.609375	291.5169677734375	-218.7640380859375	-3140.98583984375	449.697021484375	-442.0877685546875	-3027.074951171875	137.0094909667969	-251.4366607666016	-2836.376220703125	85.79600524902344	-278.311279296875	-3088.724609375	114.2719955444336	-308.1993408203125	-3080.49609375	81.48162078857422	-332.3870849609375	-3097.0029296875	94.47193145751952	-283.1673889160156	-3201.748779296875	503.2395324707031	-412.7008972167969
43	0.21	-2746.47802734375	1387.009887695312	-483.9375	-2742.453369140625	1367.4111328125	-172.7079162597656	-2837.686767578125	940.2335205078124	-481.0220642089844	-2824.19775390625	951.6383056640624	-198.7245941162109	-2796.95361328125	890.3798828125	-454.9993591308594	-3144.643310546875	500.2370300292969	-384.4368286132812	-2794.710693359375	916.8228759765624	-220.2295989990234	-2929.031494140625	816.7818603515625	-492.001708984375	-2938.92138671875	842.9042358398438	-166.958251953125	-2969.6474609375	953.4579467773438	-349.5716857910156	-2775.326416015625	624.1434936523438	-513.5650024414062	-2945.73291015625	490.7452392578125	-468.5067138671875	-2842.84326171875	594.6948852539062	-485.1211547851562	-2728.37890625	534.3321533203125	-499.0450134277344	-2909.1552734375	83.92897033691406	-211.0697021484375	-2850.986083984375	498.8672180175781	-495.9277648925781	-2801.14501953125	509.4939880371094	-476.9331970214844	-2774.337158203125	629.4086303710938	-170.2246856689453	-3129.437744140625	236.614013671875	-400.9022216796875	-2851.792724609375	622.0364379882812	-167.4391479492188	-2760.871337890625	535.4048461914062	-204.8394927978516	-2842.85498046875	523.698486328125	-193.4353637695312	-2769.565185546875	474.7478332519531	-496.2657165527344	-2808.470458984375	459.4921569824219	-202.5320587158203	-2839.589599609375	418.4385070800781	-483.2652587890625	-2938.829833984375	410.5982666015625	-461.1817626953125	-2834.73583984375	335.8368530273438	-210.9683532714844	-3149.699462890625	302.3349304199219	-463.6181945800781	-2910.676025390625	375.6470031738281	-201.7085418701172	-3173.873291015625	487.3993530273438	-363.2670288085938	-2890.563720703125	251.7262878417969	-233.0287780761719	-2955.957763671875	293.4979858398438	-218.249755859375	-3108.211669921875	442.1142578125	-441.6027526855469	-3026.72900390625	139.4116516113281	-250.3602752685547	-2836.03125	85.27149963378906	-278.1051025390625	-3088.934326171875	115.9477996826172	-307.5634155273438	-3080.2685546875	83.6185073852539	-332.3523559570312	-3096.52734375	96.70291137695312	-283.2691955566406	-3171.77880859375	493.171630859375	-414.3641357421875
44	0.215	-2728.009033203125	1389.330078125	-484.4843139648438	-2719.549560546875	1369.757690429688	-173.9411773681641	-2817.767333984375	942.3578491210938	-481.1618347167969	-2804.280029296875	954.3121337890624	-199.0838470458984	-2775.9091796875	892.1452026367188	-454.9544067382812	-3114.90625	490.8081665039062	-387.0841064453125	-2775.551025390625	916.7415161132812	-218.6522216796875	-2907.986083984375	818.9445190429688	-492.6158142089844	-2920.28125	845.1651611328125	-167.8002471923828	-2948.681884765625	955.8087768554688	-349.3507995605469	-2749.8232421875	629.0128173828125	-512.8651733398438	-2912.18017578125	486.9356689453125	-465.3271179199219	-2816.044677734375	597.7106323242188	-483.5942077636719	-2699.000732421875	540.5621337890625	-498.1305236816406	-2908.263671875	83.34119415283203	-210.9678192138672	-2821.318359375	502.0009155273438	-495.5390014648438	-2770.8876953125	513.1210327148438	-474.7973022460938	-2761.68359375	628.2701416015625	-170.9288940429688	-3087.818359375	229.2855377197266	-401.0164489746094	-2839.253662109375	622.849609375	-167.5375823974609	-2749.248046875	534.2261962890625	-204.9486541748047	-2832.346435546875	523.9943237304688	-193.1432342529297	-2739.416259765625	481.2425231933594	-496.1664428710938	-2801.091796875	459.7251281738281	-202.0396270751953	-2806.581787109375	421.649169921875	-482.2543640136719	-2905.674072265625	410.225830078125	-460.0363464355469	-2829.734130859375	335.8221435546875	-210.6129302978516	-3110.16552734375	293.646484375	-463.2508544921875	-2905.171142578125	376.3475952148438	-201.4125213623047	-3142.426513671875	475.8818054199219	-361.0791320800781	-2887.926513671875	251.8616790771484	-232.7472534179688	-2952.257568359375	295.388916015625	-218.2307586669922	-3076.626708984375	435.5220642089844	-442.8095397949219	-3024.357666015625	142.1448669433594	-250.4279174804688	-2836.280517578125	84.823974609375	-278.4221801757812	-3089.38232421875	117.9268264770508	-307.3899230957031	-3079.811767578125	85.77218627929688	-332.4272766113281	-3096.623779296875	98.37851715087892	-282.7018127441406	-3143.1025390625	484.0588684082031	-415.3428955078125
